:SAMPLES-PER-SECOND 30
:FULLY-SPECIFIED
:DEGREES
797
root  70.6247 30.8835 -8.59119 -6.0961 83.7702 -2.28607
RightUpLeg  -42.9151 -2.7939 -17.3646
RightLeg  60.3507 7.58673 13.6773
RightFoot  -14.2449 0.187293 11.2023
RightToes  7.56698e-010 0 -3.6325e-017
Spine  39.0634 -0.458105 -0.307615
Spine1  -4.67343 -0.775858 0.984685
HEad  -16.7279 -16.0092 -23.355
LeftShoulder1  0.677861 0.389168 -14.9068
LeftArm  -83.4358 -81.6934 18.4821
LeftForeArm  12.7943 -31.5226 -6.20278
LeftHand  -0.0242838 4.71885 0.33921
RightShoulder  -3.8702 7.13064 -50.3704
RightArm  -72.2196 12.409 60.4712
RightForeArm  37.2218 75.7487 47.2296
RightHand  2.10572 16.1447 10.7185
LeftUpLeg  -42.2276 10.209 8.15898
LeftLeg  69.272 -0.663408 -1.10124
LeftFoot  -20.7441 -0.0454726 -2.06754
LeftToes  -2.88401e-009 5.30678e-011 -1.08654e-010
798
root  70.7319 30.6121 -8.55824 -3.71767 83.4341 0.0826111
RightUpLeg  -43.9486 -2.67021 -17.6809
RightLeg  62.1015 7.33406 14.225
RightFoot  -14.7911 0.212077 10.3419
RightToes  7.56698e-010 0 -3.6325e-017
Spine  39.2652 0.148048 -1.41591
Spine1  -5.03418 -0.723784 2.48667
HEad  -17.1184 -16.2721 -25.2182
LeftShoulder1  0.769094 -0.06959 -14.6535
LeftArm  -97.9888 -81.7242 33.206
LeftForeArm  12.4576 -30.3413 -5.93102
LeftHand  -0.0307409 6.73322 0.491649
RightShoulder  -2.90533 2.08834 -65.528
RightArm  -76.0609 14.6274 74.8358
RightForeArm  41.8879 76.4964 50.6334
RightHand  1.29188 8.98248 10.0564
LeftUpLeg  -42.7353 10.6163 8.06388
LeftLeg  70.6979 -0.63677 -1.12423
LeftFoot  -21.5578 -0.0468223 -1.9687
LeftToes  -2.88401e-009 5.30678e-011 -1.08654e-010
799
root  70.8518 30.4995 -8.53521 -2.37523 82.8906 0.88472
RightUpLeg  -44.9261 -2.24258 -17.7559
RightLeg  62.7673 7.16045 14.2978
RightFoot  -15.3504 0.263952 10.499
RightToes  7.56698e-010 0 -3.6325e-017
Spine  39.9176 0.52883 -2.66082
Spine1  -6.35325 -0.97584 4.14799
HEad  -18.2761 -16.0907 -26.9474
LeftShoulder1  0.603586 0.736399 -14.9595
LeftArm  -115.262 -81.4135 51.186
LeftForeArm  11.7735 -28.6033 -5.5521
LeftHand  -0.0312128 5.58564 -0.605404
RightShoulder  0.95108 -4.87828 -77.9168
RightArm  -76.7564 20.5966 88.6297
RightForeArm  42.3862 76.7873 52.8029
RightHand  0.84063 2.79386 11.3999
LeftUpLeg  -43.3093 10.9013 8.05828
LeftLeg  71.3688 -0.530631 -0.825113
LeftFoot  -22.019 -0.0619342 -2.07672
LeftToes  -2.88401e-009 5.30678e-011 -1.08654e-010
800
root  70.9665 30.622 -8.58316 -3.27803 82.3189 -0.366577
RightUpLeg  -44.8378 -1.75602 -17.5676
RightLeg  62.0688 7.28993 14.1227
RightFoot  -15.4589 0.277414 10.6153
RightToes  7.56698e-010 0 -3.6325e-017
Spine  39.2308 0.697709 -2.51596
Spine1  -5.44158 -0.791479 4.44846
HEad  -19.0343 -16.8974 -27.8468
LeftShoulder1  0.715153 0.12639 -14.2331
LeftArm  -127.573 -80.4158 62.6378
LeftForeArm  11.3541 -27.0605 -5.21736
LeftHand  -0.0248819 5.02682 -1.46179
RightShoulder  6.81507 -11.6713 -88.443
RightArm  -75.2892 25.8912 101.028
RightForeArm  40.351 76.7286 53.3122
RightHand  0.0487334 -4.41361 12.1332
LeftUpLeg  -43.0754 10.9946 8.17229
LeftLeg  70.9999 -0.396923 -0.366187
LeftFoot  -22.0827 -0.0655385 -2.10628
LeftToes  -2.88401e-009 5.30678e-011 -1.08654e-010
801
root  71.0904 30.8552 -8.6223 -1.40912 81.5341 0.92363
RightUpLeg  -44.7679 -1.35349 -17.6238
RightLeg  60.8783 7.63828 14.0694
RightFoot  -15.4927 0.290349 10.8889
RightToes  7.56698e-010 0 -3.6325e-017
Spine  38.8474 1.48762 -3.94417
Spine1  -5.1678 -0.689164 6.46125
HEad  -21.0386 -17.7518 -30.4968
LeftShoulder1  0.66702 0.389395 -14.4894
LeftArm  -135.872 -79.2423 70.7503
LeftForeArm  8.80844 -25.6658 -5.04135
LeftHand  -0.0435087 6.00862 -1.74333
RightShoulder  14.871 -18.8419 -97.2697
RightArm  -69.486 32.8018 112.992
RightForeArm  37.561 76.1982 50.258
RightHand  -0.311055 -7.32817 15.8239
LeftUpLeg  -42.6703 11.5091 7.87021
LeftLeg  69.9628 -0.292567 -0.0154305
LeftFoot  -21.9754 -0.0674161 -2.14126
LeftToes  -2.88401e-009 5.30678e-011 -1.08654e-010
802
root  71.1942 31.2146 -8.72097 -1.46936 81.1529 0.582565
RightUpLeg  -43.822 -1.12789 -17.5737
RightLeg  58.9201 8.17249 13.9019
RightFoot  -15.3189 0.293977 11.43
RightToes  7.56698e-010 0 -3.6325e-017
Spine  38.6319 1.78556 -4.91097
Spine1  -4.53861 -1.06111 8.6677
HEad  -22.437 -17.1866 -31.09
LeftShoulder1  0.507264 1.18515 -15.1158
LeftArm  -141.523 -77.7422 77.0244
LeftForeArm  6.76983 -24.2335 -4.83118
LeftHand  -0.0441101 5.77252 -2.36486
RightShoulder  23.7484 -25.6703 -102.894
RightArm  -59.2154 38.1994 125.014
RightForeArm  36.2015 75.9774 49.2974
RightHand  -0.480495 -7.71611 19.359
LeftUpLeg  -41.7865 11.5148 7.65976
LeftLeg  68.3741 -0.142113 0.41522
LeftFoot  -21.5779 -0.0772053 -2.30801
LeftToes  -2.88401e-009 5.30678e-011 -1.08654e-010
803
root  71.2994 31.6198 -8.86031 -2.86295 80.5451 -1.54262
RightUpLeg  -43.1503 -0.921921 -17.1469
RightLeg  56.5097 8.71685 13.4893
RightFoot  -14.5418 0.221159 11.4289
RightToes  7.56698e-010 0 -3.6325e-017
Spine  39.2379 1.66253 -5.33957
Spine1  -6.02532 -1.55559 10.6329
HEad  -23.9692 -16.4479 -33.1978
LeftShoulder1  0.26182 2.40391 -16.9732
LeftArm  -143.943 -76.9204 81.2528
LeftForeArm  5.47513 -22.3856 -4.29189
LeftHand  -0.0417558 5.70381 -4.58161
RightShoulder  35.6409 -35.1625 -105.655
RightArm  -39.3221 43.3493 141.614
RightForeArm  34.3709 75.5306 47.1062
RightHand  -1.33426 -11.7584 22.1324
LeftUpLeg  -41.2327 11.7295 7.62799
LeftLeg  66.5487 0.0640227 0.912434
LeftFoot  -21.1044 -0.080785 -2.42536
LeftToes  -2.88401e-009 5.30678e-011 -1.08654e-010
804
root  71.3931 32.0054 -9.01335 -3.04425 79.6163 -2.94847
RightUpLeg  -43.1327 -1.00048 -16.7151
RightLeg  54.0012 9.4992 13.3797
RightFoot  -13.6968 0.148807 11.7431
RightToes  7.56698e-010 0 -3.6325e-017
Spine  38.9715 1.9178 -5.59043
Spine1  -6.24614 -1.51087 12.1816
HEad  -25.8543 -16.4621 -34.7239
LeftShoulder1  0.0206493 3.41889 -18.0869
LeftArm  -145.092 -75.1916 85.5406
LeftForeArm  1.35853 -20.2632 -3.39109
LeftHand  0.0110376 5.24098 -6.92223
RightShoulder  45.1148 -41.142 -109.607
RightArm  -26.3239 43.6258 153.065
RightForeArm  35.4604 76.0331 49.9252
RightHand  -1.98148 -15.3008 21.0548
LeftUpLeg  -41.2267 12.4519 7.39548
LeftLeg  64.8019 0.283684 1.35792
LeftFoot  -20.5035 -0.0567892 -2.24498
LeftToes  -2.88401e-009 5.30678e-011 -1.08654e-010
805
root  71.5041 32.3813 -9.19097 -3.17006 78.6302 -4.34492
RightUpLeg  -43.0575 -0.990047 -16.3319
RightLeg  51.3442 10.3026 13.1748
RightFoot  -13.0086 0.093713 12.4785
RightToes  7.56698e-010 0 -3.6325e-017
Spine  39.5434 2.16184 -5.84814
Spine1  -7.80687 -1.36628 13.9362
HEad  -27.8079 -16.5035 -36.6402
LeftShoulder1  -0.250014 4.45167 -19.7864
LeftArm  -143.158 -74.0071 89.1922
LeftForeArm  -3.20824 -18.3654 -2.87993
LeftHand  -0.176684 10.1651 -2.36881
RightShoulder  55.286 -47.8968 -112.254
RightArm  -12.0957 41.3524 163.125
RightForeArm  32.3106 76.0517 51.3518
RightHand  -4.75511 -21.6033 25.149
LeftUpLeg  -41.2723 13.2565 7.1314
LeftLeg  63.0682 0.510303 1.75257
LeftFoot  -20.0186 -0.0476003 -2.2087
LeftToes  -2.88401e-009 5.30678e-011 -1.08654e-010
806
root  71.5999 32.6992 -9.3859 -2.69693 77.7467 -5.03403
RightUpLeg  -42.8978 -1.03303 -16.1488
RightLeg  48.657 11.0879 12.8924
RightFoot  -12.627 0.0685828 13.7328
RightToes  7.56698e-010 0 -3.6325e-017
Spine  40.0185 2.69529 -6.55185
Spine1  -9.02859 -1.17866 16.5284
HEad  -30.0989 -16.8373 -38.5062
LeftShoulder1  -0.502433 5.28579 -21.7815
LeftArm  -140.916 -72.7575 91.2539
LeftForeArm  -10.8294 -15.8803 -2.63779
LeftHand  -2.07078 13.3181 -4.26389
RightShoulder  65.6991 -54.6791 -114.774
RightArm  2.08573 39.5793 170.808
RightForeArm  47.7697 76.883 50.8394
RightHand  6.92431 0.977569 49.1648
LeftUpLeg  -41.4022 14.0349 6.70725
LeftLeg  61.5514 0.686379 1.9983
LeftFoot  -19.5906 -0.0227746 -1.94469
LeftToes  -2.88401e-009 5.30678e-011 -1.08654e-010
807
root  71.6782 32.9634 -9.58465 -2.56114 76.9978 -5.83594
RightUpLeg  -42.713 -1.37473 -15.838
RightLeg  46.2452 11.9432 12.7547
RightFoot  -11.617 -0.0448932 14.1218
RightToes  7.56698e-010 0 -3.6325e-017
Spine  40.496 2.84273 -6.85864
Spine1  -9.88034 -1.24791 18.393
HEad  -31.7487 -16.1172 -39.2102
LeftShoulder1  -0.797602 6.2356 -22.7901
LeftArm  -138.115 -71.5103 93.2481
LeftForeArm  9.54005 -13.6943 -3.59516
LeftHand  11.6665 -20.5985 -5.40096
RightShoulder  73.7806 -61.2674 -115.032
RightArm  12.9784 38.2169 175.478
RightForeArm  71.6428 77.0418 41.7086
RightHand  78.264 55.8482 111.375
LeftUpLeg  -41.5369 14.677 6.33898
LeftLeg  60.3168 0.87692 2.26708
LeftFoot  -19.0969 -7.40335e-005 -1.69059
LeftToes  -2.88401e-009 5.30678e-011 -1.08654e-010
808
root  71.7801 33.1352 -9.77091 -2.06039 76.1351 -6.30672
RightUpLeg  -43.0146 -1.82771 -15.5988
RightLeg  44.7043 13.0971 13.2475
RightFoot  -10.4306 -0.184973 14.255
RightToes  7.56698e-010 0 -3.6325e-017
Spine  40.7938 3.28134 -7.78789
Spine1  -10.5544 -1.27473 21.0428
HEad  -33.4496 -14.8951 -40.1661
LeftShoulder1  -1.05716 6.99066 -23.9521
LeftArm  -126.38 -72.7195 96.9582
LeftForeArm  105.175 -48.3419 12.2972
LeftHand  -65.0362 -14.8934 121.212
RightShoulder  81.1548 -68.9724 -113.528
RightArm  22.4786 36.9013 178.502
RightForeArm  39.8971 70.703 29.3562
RightHand  166.465 54.2289 169.232
LeftUpLeg  -41.9173 15.5732 5.89305
LeftLeg  59.5629 0.969597 2.36973
LeftFoot  -18.8656 0.0249695 -1.34129
LeftToes  -2.88401e-009 5.30678e-011 -1.08654e-010
809
root  71.9111 33.242 -9.98126 0.466644 75.4439 -5.08366
RightUpLeg  -43.8247 -2.44532 -15.8856
RightLeg  43.4533 13.9825 13.5221
RightFoot  -9.82972 -0.26118 14.6087
RightToes  7.56698e-010 0 -3.6325e-017
Spine  40.5361 3.26805 -7.9938
Spine1  -11.1572 -1.24853 22.0364
HEad  -35.3421 -15.1096 -41.1214
LeftShoulder1  -1.27527 7.45172 -26.0052
LeftArm  -99.0562 -78.7799 102.412
LeftForeArm  -17.3707 -30.9073 -168.054
LeftHand  7.96584 13.698 30.5362
RightShoulder  83.2626 -75.5362 -108.407
RightArm  49.4102 37.3856 -176.73
RightForeArm  4.75651 54.4424 16.2359
RightHand  -143.216 48.6227 -149.668
LeftUpLeg  -42.865 16.0079 4.85895
LeftLeg  59.0623 1.21864 2.77453
LeftFoot  -18.6844 0.0365026 -1.17766
LeftToes  -2.88401e-009 5.30678e-011 -1.08654e-010
810
root  72.0567 33.3858 -10.2151 -0.772507 74.8807 -6.877
RightUpLeg  -43.4025 -2.91887 -15.4111
RightLeg  41.7853 14.9746 13.6572
RightFoot  -9.06732 -0.361448 15.0273
RightToes  7.56698e-010 0 -3.6325e-017
Spine  40.9174 2.3115 -5.71015
Spine1  -11.3641 -1.29652 20.7566
HEad  -37.8519 -17.1617 -43.6256
LeftShoulder1  -1.47137 7.63544 -29.3972
LeftArm  -60.7206 -82.4225 90.1757
LeftForeArm  -8.1502 -33.8891 -172.809
LeftHand  1.07827 20.7482 1.07522
RightShoulder  73.3504 -82.5053 -90.7677
RightArm  103.627 38.8062 -171.399
RightForeArm  87.9187 32.9275 3.29441
RightHand  -86.3981 75.0948 -100.923
LeftUpLeg  -42.9199 16.2769 4.8404
LeftLeg  58.6131 1.40346 3.05486
LeftFoot  -18.709 0.0476575 -1.0033
LeftToes  -2.88401e-009 5.30678e-011 -1.08654e-010
811
root  72.183 33.455 -10.3579 -1.45602 73.9477 -8.09373
RightUpLeg  -43.5607 -2.61842 -15.0287
RightLeg  40.8186 15.5282 13.6824
RightFoot  -8.25208 -0.459517 14.8716
RightToes  7.56698e-010 0 -3.6325e-017
Spine  41.5531 2.31903 -5.76962
Spine1  -12.0516 -1.28946 21.5769
HEad  -43.9335 -21.91 -47.133
LeftShoulder1  -1.69413 8.14826 -30.2355
LeftArm  -58.9505 -81.2182 89.4681
LeftForeArm  -126.692 -33.0795 -176.486
LeftHand  -1.92082 10.2804 -33.6796
RightShoulder  49.0488 -84.3065 -63.3939
RightArm  61.7103 30.8352 172.056
RightForeArm  21.41 16.0397 4.20767
RightHand  -78.7597 -71.9481 100.692
LeftUpLeg  -43.074 17.2231 4.86028
LeftLeg  58.5242 1.44699 3.12009
LeftFoot  -18.8953 0.0570043 -0.852165
LeftToes  -2.88401e-009 5.30678e-011 -1.08654e-010
